<svg id="Vrstva_1" data-name="Vrstva 1" xmlns="http://www.w3.org/2000/svg" viewBox="0 0 1282.38 1171.2"><defs><style>.cls-1{fill:#dea559;fill-rule:evenodd;}.cls-2{font-size:154.72px;}.cls-2,.cls-3{fill:#dca458;}.cls-12,.cls-2,.cls-3{font-family:MyriadPro-Bold, Myriad Pro;font-weight:700;}.cls-3{font-size:159.58px;}.cls-4{fill:#fff;}.cls-5,.cls-8{fill:#fd0;}.cls-5,.cls-6{opacity:0.8;}.cls-6{fill:#008bd2;}.cls-7{fill:#132f55;}.cls-9{fill:none;}.cls-10{fill:#f7a600;}.cls-11{fill:#dda45a;}.cls-12{font-size:60px;fill:#1a3054;}</style></defs><g id="Logo_100_-_kulate" data-name="Logo 100 - kulate"><g id="Kulate"><path class="cls-1" d="M136.38,586.38c0-213.6,138.77-395.69,333.76-467v11.93c-188.82,70.72-322.56,247.89-322.56,455s133.74,384.31,322.56,455v11.94c-195-71.28-333.76-253.36-333.76-467Zm682.21,460.08c185.57-75.61,315.94-253,315.94-460.08S1004.16,201.92,818.59,126.3v12.11c179.36,75,304.74,247.41,304.74,448s-125.38,373-304.74,448v12.1Z"/><text class="cls-2" transform="translate(454.9 1094.15) rotate(15.17)">2</text><text class="cls-2" transform="translate(547.01 1118.3) rotate(5.09)">0</text><text class="cls-2" transform="translate(642.07 1125.92) rotate(-5.16)">2</text><text class="cls-2" transform="matrix(0.96, -0.27, 0.27, 0.96, 736.98, 1116.49)">2</text><text class="cls-3" transform="matrix(0.97, -0.25, 0.25, 0.97, 485.26, 165.04)">1</text><text class="cls-3" transform="matrix(1, -0.07, 0.07, 1, 561.39, 144.16)">9</text><text class="cls-3" transform="translate(640.11 137.64) rotate(6.42)">2</text><text class="cls-3" transform="translate(718.83 145.61) rotate(16.8)">2</text><text/></g><circle class="cls-4" cx="641.19" cy="585.6" r="421.41"/><circle class="cls-5" cx="641.19" cy="585.6" r="399.45"/><circle class="cls-6" cx="641.19" cy="585.6" r="258.31"/><path class="cls-7" d="M797.36,430.5a218.5,218.5,0,1,0,64,154.51A217,217,0,0,0,797.36,430.5Z"/><path class="cls-8" d="M801.17,576q-3.79-1.53-7.86-2.81c-14.07-4.44-29.77-6.48-46.26-6.28,7,59.36-7.91,119.3-41.64,166-13.91,19.27-30.37,35.1-48,46.58A194.55,194.55,0,0,0,693.72,773c42-22.63,67.06-59,80.94-86.66C792.11,651.61,801.64,611.77,801.17,576Z"/><path class="cls-8" d="M572.11,726.81c1.26-1,2.51-2.13,3.75-3.27a146.59,146.59,0,0,0,27.39-34.86c-55.07-23.58-99.67-66.53-123.31-119.21-9.54-21.25-15-43-16.24-63.62a193.36,193.36,0,0,0-10.93,31C449.75,623.05,508.53,693,572.11,726.81Z"/><path class="cls-8" d="M689.89,721.74c31.13-43.12,44.76-98.63,38-153.6a231.92,231.92,0,0,0-77.41,23.42c-3.32,58.44-26.69,114-61.71,146.09-11,10.09-22.75,17.43-34.82,21.87a192.9,192.9,0,0,0,60.37,18.81C641.77,771,668.88,750.85,689.89,721.74Z"/><path class="cls-8" d="M580.21,515.77c15.59,22.09,36.77,42.57,61.48,58.79C694,548.21,753.79,540.67,799.07,555c14.26,4.5,26.48,11,36.37,19.27a193.2,193.2,0,0,0-15.28-65c-20-20.46-51.32-34.07-87.4-37.75C679.64,466.07,624.53,482.17,580.21,515.77Z"/><path class="cls-8" d="M569.93,499.53c47.94-35.83,107.39-52.94,164.77-47.08,23.07,2.35,44.51,8.45,63,17.63A196.41,196.41,0,0,0,771.27,441c-32.38-19.81-69.72-29.21-108.93-27.28-37.76,1.87-76.53,14.35-109.78,35.26a105.63,105.63,0,0,0,1.83,11.08A145.49,145.49,0,0,0,569.93,499.53Z"/><path class="cls-8" d="M677.4,394.4a194.55,194.55,0,0,0-118.94,15.1,61.6,61.6,0,0,0-5.41,16.92c33.5-18.8,71.35-30,108.35-31.82Q669.46,394.21,677.4,394.4Z"/><path class="cls-8" d="M612,671.59a231.27,231.27,0,0,0,19.38-80.91c-49-32.09-85.4-80.12-95.67-126.48-3.22-14.56-3.71-28.37-1.54-41a196.12,196.12,0,0,0-48.08,45.07c-7.28,27.35-3.33,60.77,11.32,93.39C519.26,610.33,560.74,650,612,671.59Z"/><path class="cls-8" d="M450.35,623.73A195,195,0,0,0,530.13,745.3a64.15,64.15,0,0,0,24-6.64C511.43,713.65,471.86,673.59,450.35,623.73Z"/><path class="cls-8" d="M820.17,586.55c-1.32,35.83-11.35,74.44-28.4,108.38a245.59,245.59,0,0,1-23.46,37.88A194.26,194.26,0,0,0,835.08,602,63.1,63.1,0,0,0,820.17,586.55Z"/><path class="cls-9" d="M603.28,688.7a146.59,146.59,0,0,1-27.39,34.86c-1.24,1.13-2.49,2.21-3.75,3.26C508.56,693.05,449.78,623.07,452.8,536.89a193.7,193.7,0,0,1,10.93-31c1.25,20.67,6.7,42.38,16.23,63.63C503.61,622.17,548.21,665.12,603.28,688.7Z"/><path class="cls-9" d="M689.92,721.76c-21,29.11-48.12,49.29-75.55,56.59A193.16,193.16,0,0,1,554,759.54c12.07-4.45,23.81-11.78,34.82-21.87,35-32.07,58.39-87.65,61.71-146.09a231.69,231.69,0,0,1,77.41-23.42C734.68,623.13,721.05,678.64,689.92,721.76Z"/><path class="cls-9" d="M775.37,549.63c-41.27-5.91-90.08,3-133.65,25-24.71-16.22-45.9-36.71-61.48-58.79,44.32-33.6,99.43-49.7,152.55-44.28A178.68,178.68,0,0,1,760,476.38,257.63,257.63,0,0,1,775.37,549.63Z"/><path class="cls-9" d="M631.4,590.7A231.27,231.27,0,0,1,612,671.61c-51.25-21.59-92.73-61.26-114.59-110-14.65-32.62-18.6-66-11.33-93.39a196.2,196.2,0,0,1,48.09-45.08c-2.17,12.66-1.68,26.48,1.54,41C546,510.58,582.45,558.61,631.4,590.7Z"/><path class="cls-10" d="M801.2,576q-3.8-1.53-7.86-2.82A129.73,129.73,0,0,0,776,569.1q0,4.39-.12,8.89c-2.58,94.51-43.25,155-94.49,198q6.24-1.31,12.33-3c42-22.62,67.06-59,80.94-86.65C792.14,651.63,801.67,611.78,801.2,576Z"/><path class="cls-10" d="M775.37,549.63A150.23,150.23,0,0,1,799.1,555c14.26,4.5,26.48,11,36.37,19.27a193.21,193.21,0,0,0-15.28-65c-14.78-15.11-35.73-26.48-60.21-32.87A257.63,257.63,0,0,1,775.37,549.63Z"/><path class="cls-10" d="M797.71,470.09A196.89,196.89,0,0,0,771.3,441a186.21,186.21,0,0,0-38.76-18,257.08,257.08,0,0,1,18.22,31.71A177.85,177.85,0,0,1,797.71,470.09Z"/><path class="cls-10" d="M820.2,586.57C818.87,622.4,808.85,661,791.79,695a246.32,246.32,0,0,1-23.45,37.88,194.32,194.32,0,0,0,66.77-130.78A63.11,63.11,0,0,0,820.2,586.57Z"/><path class="cls-4" d="M565.63,473.63c.5,1.45,1,2.88,1.58,4.29.28.71.55,1.41.85,2.11s.57,1.4.88,2.09q.91,2.08,1.91,4.11c.67,1.36,1.37,2.66,2.1,4-.17-1.48-.32-3-.41-4.42s-.16-2.94-.18-4.4c0-.73,0-1.47,0-2.2s0-1.46,0-2.18c0-1.46.08-2.91.18-4.36.17-2.89.44-5.77.8-8.61.17-1.32.36-2.64.57-3.94l1.19-.75,4-2.37,4-2.3,4-2.25,4.08-2.17,4.11-2.12,4.15-2,4.18-2q4.21-1.93,8.48-3.75c2.84-1.2,5.71-2.37,8.6-3.47s5.79-2.18,8.72-3.18,5.88-2,8.85-2.85c1.48-.46,3-.89,4.46-1.3s3-.83,4.49-1.2,3-.77,4.52-1.12,3-.7,4.54-1,3-.64,4.57-.91,3.06-.56,4.59-.79,3.07-.48,4.62-.67,3.08-.4,4.63-.54,3.09-.31,4.65-.41l2.33-.16,2.33-.1c1.56-.08,3.11-.1,4.67-.1s3.12,0,4.68.06c3.13.08,6.24.32,9.36.66,1.56.15,3.1.43,4.66.63s3.08.57,4.63.85c-1.51-.42-3-.88-4.54-1.27s-3.06-.78-4.61-1.07c-3.09-.64-6.22-1.17-9.36-1.55-1.57-.19-3.14-.39-4.73-.5s-3.16-.27-4.74-.33l-2.38-.13-2.38-.05c-1.59,0-3.18,0-4.77,0s-3.18,0-4.76.11-3.18.14-4.77.24-3.18.23-4.76.37-3.17.3-4.75.49-3.17.38-4.74.6-3.16.44-4.73.71-3.15.51-4.72.81-3.14.57-4.7.9c-3.13.62-6.24,1.33-9.34,2.08s-6.19,1.57-9.27,2.43-6.14,1.79-9.19,2.75-6.08,2-9.1,3.06L595.14,436l-4.49,1.72-4.47,1.8-4.43,1.86-4.42,1.94-4.38,2-4.35,2.09-4.33,2.17-3.37,1.7-.15,4.38h0c.59,3.15,1.32,6.17,2.14,9.16S564.62,470.75,565.63,473.63Z"/><path class="cls-4" d="M692.85,480.59c-1.85.22-3.7.41-5.54.66l-5.54.8-5.51.94-5.49,1.07-5.47,1.2-5.45,1.33q-5.43,1.41-10.8,3.05c-3.59,1.11-7.15,2.29-10.68,3.57A216.6,216.6,0,0,0,617.51,502q-5.12,2.49-10.11,5.28c-1.67.93-3.3,1.93-5,2.89s-3.25,2.05-4.87,3.07l-5.78,3.64,3.81,6.47h0c1.74,2.14,3.5,4.24,5.3,6.31.92,1,1.82,2.06,2.75,3.07s1.85,2,2.8,3,1.89,2,2.87,2.93,1.93,1.93,2.94,2.86q3,2.82,6,5.48c2.05,1.78,4.13,3.5,6.26,5.16,1.06.83,2.12,1.66,3.21,2.45s2.15,1.61,3.25,2.38,2.18,1.55,3.3,2.29,2.2,1.5,3.33,2.21c2.25,1.46,4.51,2.84,6.78,4.21l-2.82-2.8L638.85,560c-.92-.94-1.8-1.94-2.69-2.9s-1.75-2-2.62-2.94-1.71-2-2.55-3-1.66-2-2.47-3q-2.43-3.06-4.7-6.23c-1.51-2.1-3-4.25-4.36-6.41-.72-1.08-1.38-2.19-2.06-3.28s-1.32-2.21-2-3.31-1.26-2.23-1.9-3.35-1.21-2.26-1.82-3.38l-.29-.58c1.12-.8,2.23-1.61,3.38-2.37,2.91-2,5.89-3.88,8.93-5.68a200.87,200.87,0,0,1,18.91-9.92c3.24-1.5,6.53-2.91,9.85-4.26s6.69-2.59,10.08-3.79l5.11-1.73,5.15-1.6,5.2-1.48,5.23-1.35,5.27-1.23c1.76-.4,3.53-.73,5.3-1.1,3.55-.68,7.11-1.29,10.69-1.79s7.18-.92,10.79-1.21,7.22-.5,10.85-.58,7.25,0,10.88.14,7.25.47,10.87.92,7.2,1.07,10.78,1.82c1.79.37,3.54.86,5.33,1.28s3.5,1,5.27,1.56c-1.71-.67-3.41-1.37-5.13-2s-3.47-1.22-5.24-1.75c-3.52-1.06-7.09-2-10.7-2.76s-7.26-1.4-10.93-1.87-7.35-.85-11-1.08-7.41-.36-11.12-.36-7.43.09-11.14.29S696.55,480.2,692.85,480.59Z"/><path class="cls-4" d="M720.86,577.58l-3.83.35c-1.27.12-2.55.29-3.83.43s-2.56.34-3.84.52-2.56.39-3.84.61-2.55.45-3.83.7-2.55.52-3.82.81-2.55.58-3.82.91-2.53.65-3.8,1q-3.79,1.05-7.54,2.3c-1.26.4-2.49.85-3.74,1.28s-2.47.91-3.71,1.36c-4.93,1.86-9.77,3.91-14.54,6h0l-3.35,2.18-.26,3.41-.39,5c-.14,1.68-.33,3.36-.48,5-.36,3.35-.75,6.7-1.24,10-.23,1.68-.49,3.34-.77,5s-.54,3.33-.86,5c-.6,3.32-1.29,6.63-2,9.92s-1.58,6.57-2.47,9.83S647,655.81,646,659s-2.18,6.4-3.38,9.57-2.5,6.3-3.86,9.41-2.83,6.18-4.36,9.21-3.15,6-4.85,9-3.48,5.86-5.35,8.72c-.94,1.42-1.87,2.85-2.86,4.24s-2,2.81-3,4.17l-1.53,2.07-1.58,2c-1.05,1.36-2.14,2.68-3.23,4-2.19,2.64-4.48,5.21-6.82,7.72s-4.79,5-7.28,7.33c-1.25,1.19-2.54,2.34-3.81,3.51l-3.91,3.41,4.21-3c1.37-1.06,2.76-2.09,4.12-3.17,2.71-2.16,5.38-4.38,8-6.7s5.14-4.69,7.59-7.17c1.24-1.23,2.46-2.47,3.64-3.75l1.8-1.91,1.74-1.95c1.17-1.3,2.31-2.63,3.43-4s2.22-2.7,3.31-4.07c2.18-2.74,4.27-5.56,6.29-8.43s4-5.8,5.83-8.78,3.64-6,5.35-9.1,3.33-6.22,4.88-9.38,3-6.38,4.42-9.63,2.71-6.53,3.95-9.84,2.41-6.65,3.5-10,2.13-6.76,3.07-10.17c.49-1.7.94-3.42,1.37-5.13s.89-3.43,1.28-5.16c.83-3.45,1.56-6.91,2.25-10.39.33-1.74.68-3.48,1-5.23l.34-2c3-2.26,6-4.46,9-6.57,1-.7,2-1.43,3.09-2.1s2.08-1.38,3.14-2c2.11-1.34,4.24-2.63,6.42-3.85,1.09-.62,2.18-1.24,3.29-1.82s2.22-1.18,3.35-1.73,2.25-1.13,3.4-1.65,2.28-1.08,3.45-1.57,2.32-1,3.5-1.49,2.35-1,3.54-1.41,2.38-.91,3.59-1.33Z"/><path class="cls-4" d="M791.17,581.18c-1.25-.46-2.53-.86-3.82-1.24-2.58-.76-5.2-1.4-7.83-2-5.26-1.15-10.58-2-15.9-2.8h0l-6.9.66.83,6.54.6,4.72c.12,1.59.27,3.18.37,4.78s.14,3.22.18,4.83l0,4.87-.18,4.89-.34,4.91-.49,4.91c-.18,1.64-.42,3.27-.62,4.91-.47,3.27-1,6.55-1.6,9.81-.28,1.64-.63,3.27-1,4.9s-.67,3.26-1.06,4.88c-.72,3.26-1.54,6.5-2.39,9.73s-1.79,6.45-2.74,9.66L746.8,665l-1.57,4.78q-1.61,4.77-3.35,9.5c-1.16,3.16-2.36,6.3-3.63,9.42q-.93,2.34-1.92,4.67c-.65,1.55-1.31,3.1-2,4.64s-1.36,3.08-2.07,4.61-1.41,3.06-2.14,4.58q-2.18,4.56-4.54,9t-4.93,8.85q-2.58,4.36-5.45,8.55,3.21-3.95,6.14-8.11T727,717c1.81-2.87,3.58-5.78,5.28-8.72.86-1.47,1.71-2.94,2.53-4.43s1.65-3,2.45-4.48,1.61-3,2.39-4.51,1.56-3,2.31-4.55c1.53-3.05,3-6.12,4.44-9.21s2.81-6.22,4.16-9.35l2-4.73,1.91-4.76c1.23-3.19,2.44-6.39,3.57-9.63s2.24-6.48,3.26-9.77c.52-1.63,1-3.28,1.49-4.93s1-3.31,1.4-5c.91-3.33,1.72-6.69,2.48-10.07.36-1.69.74-3.39,1.07-5.09l.93-5.14.78-5.18.62-5.23.43-5.27c.11-1.77.16-3.54.24-5.32s0-3.47,0-5.22c2.89-.73,5.8-1.41,8.72-2,2.53-.51,5.07-1,7.64-1.29,1.28-.17,2.57-.31,3.87-.39.65-.06,1.29-.08,1.94-.11s1.32,0,2,0C793.67,582.13,792.44,581.62,791.17,581.18Z"/><path class="cls-4" d="M603.55,657.46l2.23,1L604,656.83c-1.22-1-3-2.59-5.23-4.47s-4.93-4.28-8-7c-1.52-1.38-3.23-2.7-4.88-4.29l-5.27-4.87-2.82-2.56-2.82-2.78L569,625.13q-2.93-3.09-6-6.32l-1.54-1.62c-.52-.54-1.07-1.06-1.55-1.64l-3-3.45c-1-1.15-2-2.33-3.08-3.48l-1.57-1.75L550.71,605q-3-3.72-6.05-7.43c-2-2.55-3.8-5.22-5.78-7.8s-3.76-5.32-5.57-8c-3.81-5.31-6.92-11-10.33-16.5-2.92-5.73-6.21-11.17-8.67-16.81-.67-1.38-1.32-2.76-2-4.13-.33-.68-.65-1.36-1-2l-.49-1-.42-1c-1.15-2.74-2.23-5.43-3.36-8-.55-1.31-1.1-2.6-1.64-3.87s-.93-2.57-1.38-3.83q-1.4-3.76-2.69-7.28c-1-2.32-1.58-4.6-2.29-6.75s-1.35-4.21-2-6.14c-1.38-3.83-2.24-7.36-3.08-10.19s-1.53-5.08-2-6.61l-.74-2.32s0,.85,0,2.44,0,3.93.15,6.89a100.28,100.28,0,0,0,.73,10.69c.23,2.07.52,4.27.81,6.61s.59,4.81,1.15,7.3,1.07,5.14,1.63,7.86l.91,4.14q.58,2.07,1.2,4.2c.8,2.84,1.71,5.74,2.59,8.73.4,1.51,1,2.95,1.58,4.44l1.72,4.49c.58,1.52,1.17,3,1.76,4.58.28.77.63,1.52,1,2.27l1.05,2.25c1.41,3,2.85,6.08,4.35,9.15,3.34,5.93,6.63,12,10.6,17.72,1.94,2.87,3.83,5.78,6,8.47s4.2,5.45,6.36,8.08,4.49,5.08,6.73,7.54l1.68,1.85,1.75,1.74c1.16,1.16,2.34,2.29,3.5,3.41l3.45,3.35c1.14,1.1,2.37,2.09,3.54,3.1,2.37,2,4.66,4,6.93,5.88l6.88,5.16,3.28,2.41,3.28,2.17,6.18,4c1,.64,2,1.21,2.93,1.75l2.8,1.59c3.63,2,6.76,3.82,9.48,5S602.11,656.79,603.55,657.46Z"/><path class="cls-4" d="M567.91,713.52c-.74-.73-1.6-1.56-2.57-2.48-1.91-1.85-4.24-4.09-6.86-6.7s-5.54-5.55-8.69-8.78-6.5-6.78-10-10.59-7.1-7.83-10.75-12.07q-2.75-3.18-5.52-6.48c-.94-1.09-1.83-2.24-2.75-3.36s-1.87-2.23-2.77-3.38c-3.68-4.57-7.31-9.27-10.84-14-1.76-2.39-3.54-4.77-5.21-7.2s-3.38-4.84-5-7.25c-3.21-4.88-6.38-9.68-9.24-14.46-1.5-2.35-2.78-4.76-4.19-7.05s-2.59-4.63-3.84-6.87c-2.42-4.5-4.68-8.8-6.61-12.85-1-2-1.94-4-2.77-5.83s-1.7-3.64-2.41-5.33-1.42-3.27-2-4.74-1.17-2.83-1.67-4.06c-1-2.44-1.76-4.45-2.3-5.78l-.84-2.05.11,2.21c.05.72.1,1.61.17,2.65,0,.52.07,1.08.11,1.68s.15,1.23.23,1.9c.17,1.34.36,2.84.56,4.46s.58,3.34.91,5.2.8,3.81,1.26,5.89,1.06,4.21,1.68,6.46c1.25,4.49,2.87,9.28,4.77,14.28.45,1.26,1,2.49,1.52,3.76s1.05,2.56,1.63,3.84c1.15,2.56,2.33,5.18,3.66,7.77.66,1.3,1.29,2.63,2,3.94l2.15,3.93c1.42,2.64,3,5.24,4.58,7.86,3.21,5.21,6.72,10.35,10.38,15.37s7.57,9.86,11.63,14.42c2,2.32,4,4.55,6.1,6.72s4.1,4.3,6.2,6.3,4.16,4,6.22,5.88,4.1,3.69,6.17,5.37c4,3.43,8.07,6.47,11.8,9.21s7.3,5.06,10.51,7,6,3.6,8.43,4.87,4.3,2.18,5.61,2.8l2,.92-1.59-1.54Z"/><path class="cls-11" d="M1016.15,427.2a408.18,408.18,0,1,0,32,158.4A405.31,405.31,0,0,0,1016.15,427.2Zm-13.81,311a393.23,393.23,0,1,1,30.8-152.56A390.66,390.66,0,0,1,1002.34,738.16Z"/><path class="cls-11" d="M907,585.6a265.81,265.81,0,1,0-77.86,188A264,264,0,0,0,907,585.6ZM641.19,836.41A250.81,250.81,0,1,1,818.54,763,249.16,249.16,0,0,1,641.19,836.41Z"/><polygon class="cls-7" points="328.66 439.02 374.44 461.84 381.62 447.43 335.84 424.61 343.03 410.2 330.18 403.8 308.63 447.02 321.48 453.43 328.66 439.02"/><path class="cls-7" d="M387.47,411.37c-2.09,2.91-4.1,3.5-6.93,4L382.87,430c7.45-1.21,11.79-4.09,16.25-10.29,7.21-10,8.36-24.36-4.26-33.45l-34.94-25.15-9.41,13.06,34.65,25C390.23,402.81,390.38,407.33,387.47,411.37Z"/><path class="cls-7" d="M410.69,354.16c4.21.33,8.8-1.16,13.69-4.38l6.65-4.42a7.3,7.3,0,0,1,4.4-1.56,5.45,5.45,0,0,1,3.52,2c2.5,2.82,1.63,6.42-3.12,10.63-3.92,3.48-9.19,6.55-14,6.25L421,377.27c9.47.7,16.82-3.35,24.33-10,10.33-9.15,14.12-22.21,5.27-32.2-4-4.54-8.29-7.28-13.16-7.51-3.9-.23-8.29,1.19-13.24,4.48l-6.66,4.42a7.35,7.35,0,0,1-4.65,1.54,4.29,4.29,0,0,1-3-1.42c-1.89-2.13-2.31-6.07,1.89-9.79,2.14-1.89,6-5.69,11.86-5.34l.87-14.29c-7.92-.48-14.69,2.57-21.71,8.79-11.16,9.88-12.11,22.4-4.18,31.36C402.31,351.51,406.34,353.84,410.69,354.16Z"/><path class="cls-7" d="M470.22,337.54c6.57,1.62,12.62,1,19.47-3.17s10.24-9.19,11.86-15.76c2.34-9.48-2.65-17.21-7.74-25.63s-9.62-16.44-19.09-18.78c-6.57-1.62-12.62-1-19.47,3.17s-10.25,9.2-11.87,15.77c-2.33,9.47,2.66,17.2,7.75,25.63S460.74,335.21,470.22,337.54Zm-11.59-42.12a8.7,8.7,0,0,1,11-6.66c2.26.9,4.19,2.31,10.38,12.55s6.49,12.52,6.23,14.93a8.51,8.51,0,0,1-11,6.66c-2.26-.89-4.15-2.22-10.33-12.46S458.37,297.84,458.63,295.42Z"/><polygon class="cls-7" points="532.89 312.19 525.89 292.91 528.91 285.06 552.26 305.15 569.9 298.75 534.88 269.97 546.84 237.43 528.34 244.15 518.44 272.42 510.52 250.63 495.56 256.06 517.93 317.63 532.89 312.19"/><path class="cls-7" d="M576.89,291.24c5.46,4,11.3,5.7,19.21,4.48s13-4.61,17-10.06c5.76-7.88,4.09-16.93,2.59-26.66s-2.63-18.86-10.5-24.63c-5.46-4-11.31-5.7-19.22-4.48S573,234.5,569,240c-5.77,7.88-4.09,16.93-2.59,26.65S569,285.47,576.89,291.24Zm5.32-43.37a8.69,8.69,0,0,1,12.73-2c1.75,1.69,3,3.73,4.82,15.55s1.23,14.05.07,16.18a8.51,8.51,0,0,1-12.73,2c-1.75-1.69-3-3.64-4.8-15.46S581.05,250,582.21,247.87Z"/><polygon class="cls-7" points="672.58 278.04 645.08 277.37 646.33 226.23 630.23 225.84 628.63 291.32 672.23 292.39 672.58 278.04"/><path class="cls-7" d="M717.62,287.49c-5.07-1.33-10.55-4-13-8.16l-12.58,7.35c4.68,8.27,12.13,12.13,21.83,14.67,13.35,3.5,26.32-.61,29.7-13.51,1.54-5.88,1.45-10.94-1.07-15.12-2-3.37-5.6-6.23-11.08-8.52l-7.38-3.08a7.38,7.38,0,0,1-3.87-3,4.31,4.31,0,0,1-.47-3.26c.72-2.76,3.76-5.29,9.19-3.87,2.76.73,8.08,1.84,11,6.89l12.35-7.22c-4-6.85-10.29-10.79-19.37-13.17-14.42-3.78-25.36,2.39-28.39,14-1.43,5.42-1.12,10.07,1,13.87s5.86,6.67,11.26,8.94l7.37,3.08a7.27,7.27,0,0,1,3.74,2.78,5.48,5.48,0,0,1,.26,4.07C727.24,287.83,723.76,289.1,717.62,287.49Z"/><polygon class="cls-7" points="817.12 270.95 801.93 263.92 776.7 292.58 782.06 254.72 766.95 247.72 759.05 316.25 769.9 321.27 817.12 270.95"/><rect class="cls-7" x="783.79" y="301.94" width="65.5" height="16.1" transform="translate(116.22 831.89) rotate(-57.48)"/><polygon class="cls-7" points="826.8 357.55 848.42 332.7 842.63 371.32 853.25 380.56 896.24 331.12 884.1 320.56 862.48 345.41 868.27 306.79 857.64 297.55 814.65 346.98 826.8 357.55"/><path class="cls-7" d="M868.1,387.47c-.86,6.71.48,12.65,5.37,19s10.3,9.13,17,10c9.68,1.24,16.79-4.6,24.59-10.62s15.24-11.42,16.48-21.1c.86-6.71-.47-12.65-5.36-19s-10.31-9.12-17-10c-9.68-1.24-16.79,4.6-24.58,10.62S869.35,377.79,868.1,387.47Zm26.33-8.36c9.47-7.31,11.78-7.93,14.2-7.95a8.71,8.71,0,0,1,7.88,10.2c-.63,2.34-1.82,4.42-11.28,11.73S893.52,401,891.09,401a8.52,8.52,0,0,1-7.87-10.19C883.85,388.44,885,386.42,894.43,379.11Z"/><polygon class="cls-7" points="905.46 456.76 973.64 446.14 965.99 431.25 928.46 438.32 955.99 411.77 948.38 396.96 899.99 446.12 905.46 456.76"/><path class="cls-11" d="M319.91,585.6a322.43,322.43,0,0,1,9.9-79.46l-14.54-3.7a338.94,338.94,0,0,0,0,166.32l14.53-3.7A323,323,0,0,1,319.91,585.6Z"/><path class="cls-11" d="M952.36,505.3a323.93,323.93,0,0,1,.21,159.77l14.54,3.69a338.85,338.85,0,0,0-.23-167.2Z"/><text class="cls-12" transform="translate(320.84 717.11) rotate(64.91)">1</text><text class="cls-12" transform="translate(335.92 749.08) rotate(59.09)">0</text><text class="cls-12" transform="translate(354.2 779.39) rotate(53.26)">0</text><text class="cls-12" transform="matrix(0.65, 0.76, -0.76, 0.65, 375.28, 806.94)"> </text><text class="cls-12" transform="translate(383.88 817.33) rotate(45.52)">L</text><text class="cls-12" transform="translate(406.79 840.57) rotate(39.98)">E</text><text class="cls-12" transform="translate(433.23 862.61) rotate(34.18)">T</text><text class="cls-12" transform="matrix(0.86, 0.5, -0.5, 0.86, 461.82, 881.53)"> </text><text class="cls-12" transform="matrix(0.9, 0.43, -0.43, 0.9, 473.48, 888.93)">H</text><text class="cls-12" transform="matrix(0.95, 0.32, -0.32, 0.95, 513.2, 907.6)">Á</text><text class="cls-12" transform="translate(553.2 920.58) rotate(11.91)">Z</text><text class="cls-12" transform="translate(589.13 927.99) rotate(6.06)">E</text><text class="cls-12" transform="translate(623.31 931.76) rotate(-0.43)">N</text><text class="cls-12" transform="matrix(0.99, -0.12, 0.12, 0.99, 667.03, 931.03)">É</text><text class="cls-12" transform="matrix(0.98, -0.19, 0.19, 0.98, 700.14, 926.61)"> </text><text class="cls-12" transform="matrix(0.97, -0.26, 0.26, 0.97, 711.37, 924.95)">V</text><text class="cls-12" transform="translate(750.33 914.29) rotate(-21.06)">E</text><text class="cls-12" transform="translate(781.35 901.94) rotate(-24.93)"> </text><text class="cls-12" transform="matrix(0.88, -0.48, 0.48, 0.88, 793.72, 896.51)">S</text><text class="cls-12" transform="matrix(0.82, -0.57, 0.57, 0.82, 824.08, 879.85)">V</text><text class="cls-12" transform="translate(856.42 856.59) rotate(-39.83)">I</text><text class="cls-12" transform="matrix(0.71, -0.71, 0.71, 0.71, 871.27, 844.8)">N</text><text class="cls-12" transform="translate(902.4 813.54) rotate(-52.43)">O</text><text class="cls-12" transform="translate(929.68 777.6) rotate(-59.55)">V</text><text class="cls-12" transform="matrix(0.41, -0.91, 0.91, 0.41, 949.91, 742.63)">Ě</text></g></svg>